<mxfile host="app.diagrams.net" agent="Mozilla/5.0 (Macintosh; Intel Mac OS X 10_15_7) AppleWebKit/537.36 (KHTML, like Gecko) Chrome/133.0.0.0 Safari/537.36" version="26.0.14">
  <diagram name="Page-1" id="r6HfSmOZ2hNvZdJLSAQe">
    <mxGraphModel dx="2495" dy="1798" grid="1" gridSize="10" guides="1" tooltips="1" connect="1" arrows="1" fold="1" page="1" pageScale="1" pageWidth="1654" pageHeight="1169" background="#ffffff" math="0" shadow="0">
      <root>
        <mxCell id="0" />
        <mxCell id="1" parent="0" />
        <mxCell id="IeQ0nG8RaJsNWGY0HXt9-86" value="" style="group" vertex="1" connectable="0" parent="1">
          <mxGeometry x="20" y="90" width="1622.01" height="901.11" as="geometry" />
        </mxCell>
        <mxCell id="IeQ0nG8RaJsNWGY0HXt9-77" value="" style="rounded=1;whiteSpace=wrap;html=1;fillColor=none;dashed=1;" vertex="1" parent="IeQ0nG8RaJsNWGY0HXt9-86">
          <mxGeometry x="72.08933333333334" y="60.074" width="1477.8313333333333" height="720.8879999999999" as="geometry" />
        </mxCell>
        <mxCell id="IeQ0nG8RaJsNWGY0HXt9-23" value="Database Storage" style="rounded=1;whiteSpace=wrap;html=1;fillColor=#bac8d3;strokeColor=#23445d;shape=cylinder3;boundedLbl=1;backgroundOutline=1;size=15;" vertex="1" parent="IeQ0nG8RaJsNWGY0HXt9-86">
          <mxGeometry x="348.43177777777777" y="612.7547999999998" width="144.1786666666667" height="96.1184" as="geometry" />
        </mxCell>
        <mxCell id="IeQ0nG8RaJsNWGY0HXt9-48" style="edgeStyle=orthogonalEdgeStyle;rounded=0;orthogonalLoop=1;jettySize=auto;html=1;exitX=0;exitY=0.5;exitDx=0;exitDy=0;entryX=1;entryY=0.5;entryDx=0;entryDy=0;" edge="1" parent="IeQ0nG8RaJsNWGY0HXt9-86" source="IeQ0nG8RaJsNWGY0HXt9-29" target="IeQ0nG8RaJsNWGY0HXt9-47">
          <mxGeometry relative="1" as="geometry" />
        </mxCell>
        <mxCell id="IeQ0nG8RaJsNWGY0HXt9-29" value="myPolicies" style="rounded=1;whiteSpace=wrap;html=1;fillColor=#b1ddf0;strokeColor=#10739e;" vertex="1" parent="IeQ0nG8RaJsNWGY0HXt9-86">
          <mxGeometry x="901.1166666666667" y="204.25160000000002" width="144.1786666666667" height="72.0888" as="geometry" />
        </mxCell>
        <mxCell id="IeQ0nG8RaJsNWGY0HXt9-50" style="edgeStyle=orthogonalEdgeStyle;rounded=0;orthogonalLoop=1;jettySize=auto;html=1;exitX=0;exitY=0.5;exitDx=0;exitDy=0;entryX=1;entryY=0.5;entryDx=0;entryDy=0;" edge="1" parent="IeQ0nG8RaJsNWGY0HXt9-86" source="IeQ0nG8RaJsNWGY0HXt9-30" target="IeQ0nG8RaJsNWGY0HXt9-47">
          <mxGeometry relative="1" as="geometry" />
        </mxCell>
        <mxCell id="IeQ0nG8RaJsNWGY0HXt9-30" value="myDocument" style="rounded=1;whiteSpace=wrap;html=1;fillColor=#b1ddf0;strokeColor=#10739e;" vertex="1" parent="IeQ0nG8RaJsNWGY0HXt9-86">
          <mxGeometry x="901.1166666666667" y="300.37" width="144.1786666666667" height="72.0888" as="geometry" />
        </mxCell>
        <mxCell id="IeQ0nG8RaJsNWGY0HXt9-51" style="edgeStyle=orthogonalEdgeStyle;rounded=0;orthogonalLoop=1;jettySize=auto;html=1;exitX=0;exitY=0.5;exitDx=0;exitDy=0;entryX=1;entryY=0.5;entryDx=0;entryDy=0;" edge="1" parent="IeQ0nG8RaJsNWGY0HXt9-86" source="IeQ0nG8RaJsNWGY0HXt9-31" target="IeQ0nG8RaJsNWGY0HXt9-47">
          <mxGeometry relative="1" as="geometry" />
        </mxCell>
        <mxCell id="IeQ0nG8RaJsNWGY0HXt9-31" value="myBank" style="rounded=1;whiteSpace=wrap;html=1;fillColor=#b1ddf0;strokeColor=#10739e;" vertex="1" parent="IeQ0nG8RaJsNWGY0HXt9-86">
          <mxGeometry x="901.1166666666667" y="396.4884" width="144.1786666666667" height="72.0888" as="geometry" />
        </mxCell>
        <mxCell id="IeQ0nG8RaJsNWGY0HXt9-52" style="edgeStyle=orthogonalEdgeStyle;rounded=0;orthogonalLoop=1;jettySize=auto;html=1;exitX=0;exitY=0.5;exitDx=0;exitDy=0;entryX=1;entryY=0.5;entryDx=0;entryDy=0;" edge="1" parent="IeQ0nG8RaJsNWGY0HXt9-86" source="IeQ0nG8RaJsNWGY0HXt9-32" target="IeQ0nG8RaJsNWGY0HXt9-47">
          <mxGeometry relative="1" as="geometry" />
        </mxCell>
        <mxCell id="IeQ0nG8RaJsNWGY0HXt9-32" value="myServices" style="rounded=1;whiteSpace=wrap;html=1;fillColor=#b1ddf0;strokeColor=#10739e;" vertex="1" parent="IeQ0nG8RaJsNWGY0HXt9-86">
          <mxGeometry x="901.1166666666667" y="492.6068" width="144.1786666666667" height="72.0888" as="geometry" />
        </mxCell>
        <mxCell id="IeQ0nG8RaJsNWGY0HXt9-53" style="edgeStyle=orthogonalEdgeStyle;rounded=0;orthogonalLoop=1;jettySize=auto;html=1;exitX=0;exitY=0.5;exitDx=0;exitDy=0;entryX=1;entryY=0.5;entryDx=0;entryDy=0;" edge="1" parent="IeQ0nG8RaJsNWGY0HXt9-86" source="IeQ0nG8RaJsNWGY0HXt9-33" target="IeQ0nG8RaJsNWGY0HXt9-47">
          <mxGeometry relative="1" as="geometry" />
        </mxCell>
        <mxCell id="IeQ0nG8RaJsNWGY0HXt9-33" value="myInformation" style="rounded=1;whiteSpace=wrap;html=1;fillColor=#b1ddf0;strokeColor=#10739e;" vertex="1" parent="IeQ0nG8RaJsNWGY0HXt9-86">
          <mxGeometry x="901.1166666666667" y="588.7252" width="144.1786666666667" height="72.0888" as="geometry" />
        </mxCell>
        <mxCell id="IeQ0nG8RaJsNWGY0HXt9-39" style="edgeStyle=orthogonalEdgeStyle;rounded=0;orthogonalLoop=1;jettySize=auto;html=1;entryX=1;entryY=0.5;entryDx=0;entryDy=0;startArrow=classic;startFill=1;" edge="1" parent="IeQ0nG8RaJsNWGY0HXt9-86" source="IeQ0nG8RaJsNWGY0HXt9-45" target="IeQ0nG8RaJsNWGY0HXt9-38">
          <mxGeometry relative="1" as="geometry" />
        </mxCell>
        <mxCell id="IeQ0nG8RaJsNWGY0HXt9-36" value="Customer" style="shape=umlActor;verticalLabelPosition=bottom;verticalAlign=top;html=1;outlineConnect=0;" vertex="1" parent="IeQ0nG8RaJsNWGY0HXt9-86">
          <mxGeometry x="1585.9653333333335" y="396.4884" width="36.04466666666667" height="72.0888" as="geometry" />
        </mxCell>
        <mxCell id="IeQ0nG8RaJsNWGY0HXt9-40" style="edgeStyle=orthogonalEdgeStyle;rounded=0;orthogonalLoop=1;jettySize=auto;html=1;exitX=0;exitY=0.5;exitDx=0;exitDy=0;entryX=1;entryY=0.5;entryDx=0;entryDy=0;" edge="1" parent="IeQ0nG8RaJsNWGY0HXt9-86" source="IeQ0nG8RaJsNWGY0HXt9-38" target="IeQ0nG8RaJsNWGY0HXt9-29">
          <mxGeometry relative="1" as="geometry">
            <Array as="points">
              <mxPoint x="1117.3846666666666" y="432.53279999999995" />
              <mxPoint x="1117.3846666666666" y="240.296" />
            </Array>
          </mxGeometry>
        </mxCell>
        <mxCell id="IeQ0nG8RaJsNWGY0HXt9-41" style="edgeStyle=orthogonalEdgeStyle;rounded=0;orthogonalLoop=1;jettySize=auto;html=1;exitX=0;exitY=0.5;exitDx=0;exitDy=0;entryX=1;entryY=0.5;entryDx=0;entryDy=0;" edge="1" parent="IeQ0nG8RaJsNWGY0HXt9-86" source="IeQ0nG8RaJsNWGY0HXt9-38" target="IeQ0nG8RaJsNWGY0HXt9-30">
          <mxGeometry relative="1" as="geometry">
            <Array as="points">
              <mxPoint x="1117.3846666666666" y="432.53279999999995" />
              <mxPoint x="1117.3846666666666" y="336.41440000000006" />
            </Array>
          </mxGeometry>
        </mxCell>
        <mxCell id="IeQ0nG8RaJsNWGY0HXt9-42" style="edgeStyle=orthogonalEdgeStyle;rounded=0;orthogonalLoop=1;jettySize=auto;html=1;exitX=0;exitY=0.5;exitDx=0;exitDy=0;entryX=1;entryY=0.5;entryDx=0;entryDy=0;" edge="1" parent="IeQ0nG8RaJsNWGY0HXt9-86" source="IeQ0nG8RaJsNWGY0HXt9-38" target="IeQ0nG8RaJsNWGY0HXt9-31">
          <mxGeometry relative="1" as="geometry" />
        </mxCell>
        <mxCell id="IeQ0nG8RaJsNWGY0HXt9-43" style="edgeStyle=orthogonalEdgeStyle;rounded=0;orthogonalLoop=1;jettySize=auto;html=1;exitX=0;exitY=0.5;exitDx=0;exitDy=0;entryX=1;entryY=0.5;entryDx=0;entryDy=0;" edge="1" parent="IeQ0nG8RaJsNWGY0HXt9-86" source="IeQ0nG8RaJsNWGY0HXt9-38" target="IeQ0nG8RaJsNWGY0HXt9-32">
          <mxGeometry relative="1" as="geometry">
            <Array as="points">
              <mxPoint x="1117.3846666666666" y="432.53279999999995" />
              <mxPoint x="1117.3846666666666" y="528.6512" />
            </Array>
          </mxGeometry>
        </mxCell>
        <mxCell id="IeQ0nG8RaJsNWGY0HXt9-44" style="edgeStyle=orthogonalEdgeStyle;rounded=0;orthogonalLoop=1;jettySize=auto;html=1;exitX=0;exitY=0.5;exitDx=0;exitDy=0;entryX=1;entryY=0.5;entryDx=0;entryDy=0;startArrow=classic;startFill=1;" edge="1" parent="IeQ0nG8RaJsNWGY0HXt9-86" source="IeQ0nG8RaJsNWGY0HXt9-38" target="IeQ0nG8RaJsNWGY0HXt9-33">
          <mxGeometry relative="1" as="geometry">
            <Array as="points">
              <mxPoint x="1117.3846666666666" y="432.53279999999995" />
              <mxPoint x="1117.3846666666666" y="624.7695999999999" />
            </Array>
          </mxGeometry>
        </mxCell>
        <mxCell id="IeQ0nG8RaJsNWGY0HXt9-38" value="Self Service&lt;br&gt;Portal" style="rhombus;whiteSpace=wrap;html=1;fillColor=#fad7ac;strokeColor=#b46504;" vertex="1" parent="IeQ0nG8RaJsNWGY0HXt9-86">
          <mxGeometry x="1189.4740000000002" y="384.4736" width="144.1786666666667" height="96.1184" as="geometry" />
        </mxCell>
        <mxCell id="IeQ0nG8RaJsNWGY0HXt9-46" value="" style="edgeStyle=orthogonalEdgeStyle;rounded=0;orthogonalLoop=1;jettySize=auto;html=1;entryX=1;entryY=0.5;entryDx=0;entryDy=0;startArrow=classic;startFill=1;exitX=0.5;exitY=0.5;exitDx=0;exitDy=0;exitPerimeter=0;" edge="1" parent="IeQ0nG8RaJsNWGY0HXt9-86" source="IeQ0nG8RaJsNWGY0HXt9-36" target="IeQ0nG8RaJsNWGY0HXt9-45">
          <mxGeometry relative="1" as="geometry">
            <mxPoint x="1585.9653333333335" y="432.53279999999995" as="sourcePoint" />
            <mxPoint x="1333.6526666666668" y="432.53279999999995" as="targetPoint" />
          </mxGeometry>
        </mxCell>
        <mxCell id="IeQ0nG8RaJsNWGY0HXt9-45" value="MFA and bot protection" style="shape=parallelogram;perimeter=parallelogramPerimeter;whiteSpace=wrap;html=1;fixedSize=1;fillColor=#fad9d5;strokeColor=#ae4132;" vertex="1" parent="IeQ0nG8RaJsNWGY0HXt9-86">
          <mxGeometry x="1381.7122222222224" y="396.4884" width="144.1786666666667" height="72.0888" as="geometry" />
        </mxCell>
        <mxCell id="IeQ0nG8RaJsNWGY0HXt9-55" style="edgeStyle=orthogonalEdgeStyle;rounded=0;orthogonalLoop=1;jettySize=auto;html=1;exitX=0.5;exitY=1;exitDx=0;exitDy=0;entryX=0.5;entryY=0;entryDx=0;entryDy=0;startArrow=classic;startFill=1;" edge="1" parent="IeQ0nG8RaJsNWGY0HXt9-86" source="IeQ0nG8RaJsNWGY0HXt9-47" target="IeQ0nG8RaJsNWGY0HXt9-54">
          <mxGeometry relative="1" as="geometry" />
        </mxCell>
        <mxCell id="IeQ0nG8RaJsNWGY0HXt9-56" value="API Integration" style="edgeLabel;html=1;align=center;verticalAlign=middle;resizable=0;points=[];" vertex="1" connectable="0" parent="IeQ0nG8RaJsNWGY0HXt9-55">
          <mxGeometry x="-0.125" y="-1" relative="1" as="geometry">
            <mxPoint as="offset" />
          </mxGeometry>
        </mxCell>
        <mxCell id="IeQ0nG8RaJsNWGY0HXt9-60" style="edgeStyle=orthogonalEdgeStyle;rounded=0;orthogonalLoop=1;jettySize=auto;html=1;exitX=0.5;exitY=0;exitDx=0;exitDy=0;entryX=0.5;entryY=1;entryDx=0;entryDy=0;" edge="1" parent="IeQ0nG8RaJsNWGY0HXt9-86" source="IeQ0nG8RaJsNWGY0HXt9-47" target="IeQ0nG8RaJsNWGY0HXt9-57">
          <mxGeometry relative="1" as="geometry" />
        </mxCell>
        <mxCell id="IeQ0nG8RaJsNWGY0HXt9-75" style="edgeStyle=orthogonalEdgeStyle;rounded=0;orthogonalLoop=1;jettySize=auto;html=1;exitX=0;exitY=0.5;exitDx=0;exitDy=0;entryX=0.5;entryY=0;entryDx=0;entryDy=0;" edge="1" parent="IeQ0nG8RaJsNWGY0HXt9-86" source="IeQ0nG8RaJsNWGY0HXt9-47" target="IeQ0nG8RaJsNWGY0HXt9-74">
          <mxGeometry relative="1" as="geometry" />
        </mxCell>
        <mxCell id="IeQ0nG8RaJsNWGY0HXt9-47" value="Backend Processing" style="rounded=0;whiteSpace=wrap;html=1;fillColor=#fad7ac;strokeColor=#b46504;" vertex="1" parent="IeQ0nG8RaJsNWGY0HXt9-86">
          <mxGeometry x="588.7295555555555" y="396.4884" width="168.20844444444444" height="72.0888" as="geometry" />
        </mxCell>
        <mxCell id="IeQ0nG8RaJsNWGY0HXt9-54" value="Bank Service Providers" style="rounded=0;whiteSpace=wrap;html=1;fillColor=#b0e3e6;strokeColor=#0e8088;" vertex="1" parent="IeQ0nG8RaJsNWGY0HXt9-86">
          <mxGeometry x="588.7295555555555" y="829.0212" width="168.20844444444444" height="72.0888" as="geometry" />
        </mxCell>
        <mxCell id="IeQ0nG8RaJsNWGY0HXt9-59" style="edgeStyle=orthogonalEdgeStyle;rounded=0;orthogonalLoop=1;jettySize=auto;html=1;exitX=0.5;exitY=0;exitDx=0;exitDy=0;entryX=0.5;entryY=0;entryDx=0;entryDy=0;" edge="1" parent="IeQ0nG8RaJsNWGY0HXt9-86" source="IeQ0nG8RaJsNWGY0HXt9-57" target="IeQ0nG8RaJsNWGY0HXt9-38">
          <mxGeometry relative="1" as="geometry">
            <Array as="points">
              <mxPoint x="672.8337777777778" y="108.13319999999999" />
              <mxPoint x="1261.5633333333335" y="108.13319999999999" />
            </Array>
          </mxGeometry>
        </mxCell>
        <mxCell id="IeQ0nG8RaJsNWGY0HXt9-83" value="Communication with Users" style="edgeLabel;html=1;align=center;verticalAlign=middle;resizable=0;points=[];" vertex="1" connectable="0" parent="IeQ0nG8RaJsNWGY0HXt9-59">
          <mxGeometry x="-0.4054" y="3" relative="1" as="geometry">
            <mxPoint x="74" y="3" as="offset" />
          </mxGeometry>
        </mxCell>
        <mxCell id="IeQ0nG8RaJsNWGY0HXt9-72" style="edgeStyle=orthogonalEdgeStyle;rounded=0;orthogonalLoop=1;jettySize=auto;html=1;exitX=0;exitY=0.5;exitDx=0;exitDy=0;entryX=1;entryY=0.5;entryDx=0;entryDy=0;" edge="1" parent="IeQ0nG8RaJsNWGY0HXt9-86" source="IeQ0nG8RaJsNWGY0HXt9-57" target="IeQ0nG8RaJsNWGY0HXt9-68">
          <mxGeometry relative="1" as="geometry" />
        </mxCell>
        <mxCell id="IeQ0nG8RaJsNWGY0HXt9-85" value="Alerts on tickets" style="edgeLabel;html=1;align=center;verticalAlign=middle;resizable=0;points=[];" vertex="1" connectable="0" parent="IeQ0nG8RaJsNWGY0HXt9-72">
          <mxGeometry x="0.0175" y="-2" relative="1" as="geometry">
            <mxPoint as="offset" />
          </mxGeometry>
        </mxCell>
        <mxCell id="IeQ0nG8RaJsNWGY0HXt9-57" value="Notification Services" style="rounded=0;whiteSpace=wrap;html=1;fillColor=#fad7ac;strokeColor=#b46504;" vertex="1" parent="IeQ0nG8RaJsNWGY0HXt9-86">
          <mxGeometry x="588.7295555555555" y="276.3404" width="168.20844444444444" height="72.0888" as="geometry" />
        </mxCell>
        <mxCell id="IeQ0nG8RaJsNWGY0HXt9-62" value="Support Agent" style="shape=umlActor;verticalLabelPosition=bottom;verticalAlign=top;html=1;outlineConnect=0;" vertex="1" parent="IeQ0nG8RaJsNWGY0HXt9-86">
          <mxGeometry y="396.4904" width="36.04466666666667" height="72.0888" as="geometry" />
        </mxCell>
        <mxCell id="IeQ0nG8RaJsNWGY0HXt9-71" style="edgeStyle=orthogonalEdgeStyle;rounded=0;orthogonalLoop=1;jettySize=auto;html=1;exitX=1;exitY=0.75;exitDx=0;exitDy=0;entryX=0;entryY=0.5;entryDx=0;entryDy=0;startArrow=classic;startFill=1;" edge="1" parent="IeQ0nG8RaJsNWGY0HXt9-86" source="IeQ0nG8RaJsNWGY0HXt9-68" target="IeQ0nG8RaJsNWGY0HXt9-47">
          <mxGeometry relative="1" as="geometry">
            <Array as="points">
              <mxPoint x="252.3126666666667" y="336.41440000000006" />
              <mxPoint x="420.52111111111105" y="336.41440000000006" />
              <mxPoint x="420.52111111111105" y="432.53279999999995" />
            </Array>
          </mxGeometry>
        </mxCell>
        <mxCell id="IeQ0nG8RaJsNWGY0HXt9-68" value="Employee Portal" style="rounded=1;whiteSpace=wrap;html=1;fillColor=#b1ddf0;strokeColor=#10739e;" vertex="1" parent="IeQ0nG8RaJsNWGY0HXt9-86">
          <mxGeometry x="120.004" y="276.3404" width="144.1786666666667" height="72.0888" as="geometry" />
        </mxCell>
        <mxCell id="IeQ0nG8RaJsNWGY0HXt9-69" value="" style="endArrow=classic;startArrow=classic;html=1;rounded=0;entryX=0;entryY=0.5;entryDx=0;entryDy=0;exitX=0.5;exitY=0.5;exitDx=0;exitDy=0;exitPerimeter=0;" edge="1" parent="IeQ0nG8RaJsNWGY0HXt9-86" source="IeQ0nG8RaJsNWGY0HXt9-62" target="IeQ0nG8RaJsNWGY0HXt9-68">
          <mxGeometry width="50" height="50" relative="1" as="geometry">
            <mxPoint x="420.52111111111105" y="-12.0148" as="sourcePoint" />
            <mxPoint x="492.61044444444445" y="24.0296" as="targetPoint" />
          </mxGeometry>
        </mxCell>
        <mxCell id="IeQ0nG8RaJsNWGY0HXt9-74" value="Security and Encryption" style="rounded=0;whiteSpace=wrap;html=1;fillColor=#fad9d5;strokeColor=#ae4132;" vertex="1" parent="IeQ0nG8RaJsNWGY0HXt9-86">
          <mxGeometry x="348.43177777777777" y="468.5772" width="144.1786666666667" height="72.0888" as="geometry" />
        </mxCell>
        <mxCell id="IeQ0nG8RaJsNWGY0HXt9-76" style="edgeStyle=orthogonalEdgeStyle;rounded=0;orthogonalLoop=1;jettySize=auto;html=1;exitX=0.5;exitY=1;exitDx=0;exitDy=0;entryX=0.5;entryY=0;entryDx=0;entryDy=0;entryPerimeter=0;startArrow=classic;startFill=1;" edge="1" parent="IeQ0nG8RaJsNWGY0HXt9-86" source="IeQ0nG8RaJsNWGY0HXt9-74" target="IeQ0nG8RaJsNWGY0HXt9-23">
          <mxGeometry relative="1" as="geometry" />
        </mxCell>
        <mxCell id="IeQ0nG8RaJsNWGY0HXt9-78" value="SwissAXA System" style="text;html=1;align=center;verticalAlign=middle;whiteSpace=wrap;rounded=0;fontSize=17;fontStyle=1" vertex="1" parent="IeQ0nG8RaJsNWGY0HXt9-86">
          <mxGeometry x="654.8114444444444" width="360.44666666666666" height="36.0444" as="geometry" />
        </mxCell>
        <mxCell id="IeQ0nG8RaJsNWGY0HXt9-81" style="edgeStyle=orthogonalEdgeStyle;rounded=0;orthogonalLoop=1;jettySize=auto;html=1;exitX=0;exitY=0.5;exitDx=0;exitDy=0;entryX=0.788;entryY=-0.017;entryDx=0;entryDy=0;entryPerimeter=0;" edge="1" parent="IeQ0nG8RaJsNWGY0HXt9-86" source="IeQ0nG8RaJsNWGY0HXt9-31" target="IeQ0nG8RaJsNWGY0HXt9-54">
          <mxGeometry relative="1" as="geometry">
            <mxPoint x="909.5270888888889" y="480.592" as="sourcePoint" />
            <mxPoint x="748.8639946666667" y="874.2689367999998" as="targetPoint" />
            <Array as="points">
              <mxPoint x="901.1166666666667" y="456.5624" />
              <mxPoint x="768.9528888888889" y="456.5624" />
              <mxPoint x="768.9528888888889" y="732.9028" />
              <mxPoint x="720.8933333333333" y="732.9028" />
            </Array>
          </mxGeometry>
        </mxCell>
        <mxCell id="IeQ0nG8RaJsNWGY0HXt9-82" value="Initiate Transfers" style="edgeLabel;html=1;align=center;verticalAlign=middle;resizable=0;points=[];" vertex="1" connectable="0" parent="IeQ0nG8RaJsNWGY0HXt9-81">
          <mxGeometry x="0.2466" y="2" relative="1" as="geometry">
            <mxPoint as="offset" />
          </mxGeometry>
        </mxCell>
      </root>
    </mxGraphModel>
  </diagram>
</mxfile>
